<?xml version="1.0" standalone="no"?>
<!DOCTYPE svg PUBLIC "-//W3C//DTD SVG 20010904//EN"
 "http://www.w3.org/TR/2001/REC-SVG-20010904/DTD/svg10.dtd">
<svg version="1.0" xmlns="http://www.w3.org/2000/svg"
 width="260.000000pt" height="260.000000pt" viewBox="0 0 260.000000 260.000000"
 preserveAspectRatio="xMidYMid meet">
<metadata>
Created by potrace 1.14, written by Peter Selinger 2001-2017
</metadata>
<g transform="translate(0.000000,260.000000) scale(0.100000,-0.100000)"
fill="#000000" stroke="none">
<path d="M0 2555 c0 -40 2 -45 23 -45 13 0 81 -4 153 -10 71 -5 201 -14 289
-20 184 -12 256 -21 235 -27 -8 -3 -33 -13 -55 -23 -22 -9 -80 -30 -130 -47
-49 -16 -98 -33 -109 -38 -14 -6 -18 -5 -14 5 2 8 35 25 74 39 l69 26 -45 3
c-25 1 -133 9 -240 17 -107 8 -207 15 -222 15 l-28 0 0 -74 0 -73 53 -7 c28
-3 83 -6 120 -6 l68 0 -21 -31 -22 -30 -99 3 c-62 2 -99 -1 -99 -7 0 -6 33
-11 76 -12 42 -1 78 -4 81 -6 2 -3 -32 -61 -76 -130 l-81 -124 0 -151 0 -152
25 0 c16 0 25 -6 25 -15 0 -9 -9 -15 -25 -15 l-25 0 0 -810 0 -810 1300 0
1300 0 0 741 c0 428 -4 738 -9 735 -5 -3 -14 1 -21 9 -10 13 -9 15 9 15 l21 0
-2 297 -3 298 -100 13 c-55 7 -149 17 -210 22 -131 10 -183 19 -191 32 -8 12
115 4 329 -23 86 -10 162 -19 167 -19 6 0 10 90 10 240 l0 240 -175 0 -175 0
15 -24 c11 -17 13 -26 5 -31 -6 -4 -134 8 -285 26 -151 18 -277 30 -281 27 -3
-4 -6 -37 -6 -73 0 -36 -3 -65 -7 -65 -3 0 -51 5 -106 10 -136 14 -416 14
-554 0 -81 -8 -116 -9 -124 -1 -8 8 -1 11 25 11 42 0 74 10 60 19 -5 3 -12 21
-15 38 -8 40 6 46 113 41 52 -2 74 1 77 10 4 9 -117 12 -581 12 l-586 0 0 -45z
m967 -111 c-3 -4 -30 -14 -59 -24 -43 -14 -53 -22 -52 -39 0 -17 -5 -21 -28
-21 -21 0 -28 5 -28 19 0 10 7 24 15 31 23 19 170 52 152 34z m240 -120 c14 6
13 9 -6 23 -18 12 -20 17 -10 24 26 16 49 9 60 -18 7 -20 6 -28 -3 -35 -10 -6
-10 -10 2 -18 28 -19 -10 -11 -129 26 -141 44 -191 64 -191 74 0 5 59 -12 131
-37 71 -24 137 -42 146 -39z m-526 36 c11 0 17 -4 14 -10 -8 -13 -85 -13 -85
-1 0 12 21 21 38 15 8 -2 23 -4 33 -4z m203 -46 c5 -12 24 -27 42 -33 18 -6
38 -19 46 -28 11 -15 10 -16 -9 -11 -13 4 -23 5 -23 4 0 -2 22 -17 49 -34 114
-74 139 -141 77 -206 -18 -20 -40 -36 -47 -36 -8 1 3 14 24 31 41 34 48 69 23
117 -32 62 -185 154 -291 177 -68 14 -83 20 -73 31 7 6 114 -22 140 -36 28
-16 30 -12 9 12 -11 11 -18 25 -15 30 10 15 38 4 48 -18z m-254 6 c0 -6 -28
-9 -67 -9 -56 1 -62 3 -33 9 53 11 100 11 100 0z m-16 -97 c-29 -54 -61 -111
-70 -128 -10 -16 -39 -74 -65 -127 -34 -69 -52 -96 -62 -92 -19 7 -29 71 -15
97 15 29 -13 47 -76 47 -59 0 -52 19 10 26 64 7 86 14 81 27 -2 7 -25 12 -60
12 -48 0 -57 2 -57 18 0 9 6 20 14 23 11 4 10 13 -3 49 -14 41 -14 45 3 64 24
27 46 27 53 1 6 -24 121 -81 168 -84 27 -1 33 5 57 54 41 82 58 110 67 110 5
0 -15 -44 -45 -97z m1715 41 c176 -60 201 -70 201 -83 0 -8 -364 111 -390 128
-37 24 32 8 189 -45z m-709 -18 c74 -15 203 -37 285 -50 142 -21 147 -23 95
-29 -39 -4 -106 3 -224 24 -258 45 -316 60 -316 81 0 6 6 8 13 5 6 -2 73 -16
147 -31z m903 -20 c-3 -4 4 -5 16 -1 12 4 21 2 21 -4 0 -14 -47 -14 -55 -1 -4
6 -10 8 -15 5 -5 -3 -11 -1 -15 4 -3 6 7 9 24 8 16 -1 27 -6 24 -11z m-1021
-31 c29 -14 46 -25 38 -24 -19 0 -119 47 -103 48 6 1 35 -10 65 -24z m-762
-34 c0 -5 -7 -14 -14 -21 -15 -11 -51 -148 -48 -182 0 -10 -4 -18 -10 -18 -6
0 -8 13 -6 30 3 18 0 31 -9 34 -19 8 -16 28 13 101 22 55 30 65 50 65 13 0 24
-4 24 -9z m1373 -28 c-13 -2 -33 -2 -45 0 -13 2 -3 4 22 4 25 0 35 -2 23 -4z
m-1835 -54 c-10 -5 -18 -19 -18 -29 0 -16 -7 -20 -30 -20 -30 0 -37 13 -22 36
7 12 34 21 67 23 18 0 19 0 3 -10z m823 -85 c-10 -32 -23 -70 -30 -82 -18 -34
-2 -47 79 -67 74 -18 105 -40 79 -56 -8 -5 -24 -9 -36 -9 -44 0 -209 -32 -268
-52 -56 -18 -233 -107 -263 -131 -17 -14 -14 -21 56 -113 32 -43 64 -90 71
-104 l12 -25 -18 24 c-10 14 -48 63 -85 110 -38 46 -68 88 -68 92 0 17 71 64
174 114 87 43 138 60 236 81 69 14 129 30 133 34 5 4 -6 11 -25 15 -61 12
-126 36 -139 51 -10 12 -7 20 13 42 14 15 40 53 59 84 18 31 34 56 36 55 1 -2
-6 -30 -16 -63z m-496 -30 c8 -20 15 -49 15 -64 0 -24 3 -27 28 -22 15 2 24 1
20 -3 -7 -7 -119 -34 -146 -35 -24 0 -3 17 28 23 25 5 30 11 30 35 0 15 -7 37
-15 49 -17 24 -11 53 11 53 8 0 21 -16 29 -36z m-515 -75 c0 -5 -9 -18 -21
-30 -25 -25 -47 -13 -31 18 11 19 52 29 52 12z m150 -69 c-11 -20 -44 -27 -54
-12 -3 5 9 26 27 48 l32 39 3 -27 c2 -15 -2 -36 -8 -48z m860 -5 c0 -2 -7 -5
-15 -9 -9 -3 -15 0 -15 9 0 9 6 12 15 9 8 -4 15 -7 15 -9z m-655 -5 c-3 -5 -1
-10 4 -10 29 0 5 -20 -41 -36 l-53 -18 65 -13 c91 -17 102 -16 172 12 34 14
63 24 65 22 1 -2 -8 -19 -22 -37 -14 -19 -23 -41 -20 -51 4 -13 -7 -26 -40
-49 -25 -17 -43 -35 -40 -41 8 -12 35 -12 35 1 0 16 27 12 34 -6 5 -12 1 -14
-15 -9 -16 5 -19 4 -14 -5 5 -9 1 -10 -16 -5 -13 3 -32 9 -41 11 -24 7 -23 21
2 36 11 7 20 17 20 22 0 5 -8 2 -17 -6 -20 -16 -27 -16 -63 -1 l-24 10 23 12
c13 7 35 11 49 8 19 -4 35 4 66 33 l41 39 -50 -17 c-43 -15 -67 -16 -167 -8
-85 7 -118 13 -118 22 0 22 61 84 82 84 11 0 16 -4 12 -11 -3 -6 7 -4 22 5 33
17 58 21 49 6z m-5 -227 c0 -8 5 -11 10 -8 6 3 10 1 10 -4 0 -14 -2 -14 -34 2
-27 14 -27 24 -1 24 8 0 15 -7 15 -14z m952 -23 c34 -11 70 -20 79 -20 9 0 37
-11 62 -24 28 -15 47 -21 49 -14 4 10 171 -93 184 -113 5 -10 -83 43 -138 82
-15 10 -34 16 -43 13 -8 -4 -22 0 -31 7 -23 19 -220 66 -259 61 -46 -5 -54
-35 -32 -118 22 -80 20 -92 -3 -29 -19 51 -25 131 -12 151 19 28 62 30 144 4z
m1149 -46 c9 -11 2 -9 -18 6 -18 13 -33 25 -33 27 0 8 38 -17 51 -33z m24 -34
c3 -5 -3 -10 -15 -10 -11 0 -38 -9 -59 -20 -48 -24 -128 -39 -117 -22 4 7 18
12 30 12 13 0 48 11 77 24 60 28 75 30 84 16z m-1502 -56 c18 -6 160 -164 153
-171 -4 -5 -44 37 -100 103 -36 44 -75 58 -145 51 -106 -9 -130 -34 -107 -107
7 -20 6 -22 -4 -13 -7 6 -14 31 -17 55 -6 54 7 67 85 84 52 11 88 11 135 -2z
m542 -13 c33 -11 49 -18 35 -15 -151 32 -197 37 -241 23 -42 -13 -44 -16 -49
-59 -4 -39 -6 -41 -12 -20 -12 40 -10 49 18 77 24 24 30 25 107 20 45 -2 109
-14 142 -26z m575 9 c0 -5 -17 -10 -38 -10 -44 0 -150 -26 -169 -42 -8 -7 -13
-7 -13 0 0 20 120 57 198 61 12 0 22 -3 22 -9z m145 0 c-45 -11 -135 -11 -135
0 0 6 33 10 83 9 59 -1 74 -4 52 -9z m-930 -80 c3 -5 1 -10 -4 -10 -6 0 -11 5
-11 10 0 6 2 10 4 10 3 0 8 -4 11 -10z m-87 -45 c-3 -3 -9 2 -12 12 -6 14 -5
15 5 6 7 -7 10 -15 7 -18z m42 -110 c7 -25 11 -47 9 -50 -2 -2 -11 21 -20 50
-9 30 -13 52 -9 50 4 -2 13 -25 20 -50z m-746 -10 c23 -34 16 -31 -25 11 -23
25 -27 33 -13 26 12 -6 29 -23 38 -37z m679 -13 l38 -57 -36 40 c-40 44 -60
75 -48 75 4 0 25 -26 46 -58z m1127 28 c12 -8 12 -10 1 -10 -8 0 -19 -7 -25
-15 -9 -13 -11 -11 -12 10 -2 26 11 31 36 15z m-239 -15 c-37 -17 -121 -21
-105 -6 11 11 46 18 99 19 l40 1 -34 -14z m-1008 -57 c10 -5 17 -11 15 -12 -1
-2 -50 1 -107 5 -73 6 -109 5 -118 -2 -10 -9 -13 -8 -13 4 0 9 8 17 18 19 31
7 186 -4 205 -14z m435 -45 c-10 -2 -26 -2 -35 0 -10 3 -2 5 17 5 19 0 27 -2
18 -5z m-73 -13 c-11 -5 -33 -8 -50 -8 -29 0 -29 0 -5 8 14 4 36 8 50 8 23 1
23 0 5 -8z m-350 -21 c7 -7 2 -9 -15 -5 -106 21 -161 10 -180 -37 -8 -20 -9
-20 -9 -3 -1 11 9 31 22 44 21 23 26 24 97 17 41 -3 80 -11 85 -16z m85 -14
c0 -5 -5 -3 -10 5 -5 8 -10 20 -10 25 0 6 5 3 10 -5 5 -8 10 -19 10 -25z m585
25 c-3 -5 -11 -10 -16 -10 -6 0 -7 5 -4 10 3 6 11 10 16 10 6 0 7 -4 4 -10z
m-521 -15 c-4 -8 -11 -15 -16 -15 -6 0 -5 6 2 15 7 8 14 15 16 15 2 0 1 -7 -2
-15z m-939 -96 c-8 -46 -15 -101 -15 -121 0 -21 -4 -38 -10 -38 -16 0 8 209
27 243 13 21 12 -7 -2 -84z m56 58 c-6 -6 -11 -28 -11 -48 0 -38 12 -49 51
-49 10 0 19 -5 19 -11 0 -12 -49 -9 -67 4 -10 7 -13 -3 -13 -44 -1 -36 -4 -49
-9 -39 -6 9 -6 47 -1 90 9 80 29 144 37 122 3 -8 0 -19 -6 -25z m785 -5 c-4
-3 -14 2 -24 12 -16 18 -16 18 6 6 13 -6 21 -14 18 -18z m1314 -22 c-38 -12
-109 -12 -90 0 8 5 38 9 65 9 40 -1 45 -3 25 -9z m-1350 -4 c0 -2 -11 -6 -25
-8 -14 -3 -25 -1 -25 3 0 5 11 9 25 9 14 0 25 -2 25 -4z m1095 -6 c14 -6 -3
-8 -50 -8 -64 1 -66 2 -25 8 25 4 47 7 50 8 3 0 14 -3 25 -8z m-1155 -7 c0 -5
-30 -8 -68 -9 -43 0 -58 2 -42 7 34 10 110 11 110 2z m-659 -105 c12 2 18 -8
22 -40 32 -238 58 -322 119 -384 l40 -42 -36 -36 c-98 -98 -212 6 -251 228
-15 88 -20 195 -9 183 3 -3 9 -30 13 -59 4 -38 10 -53 21 -53 11 0 16 16 20
60 5 57 6 60 35 65 29 5 31 10 26 50 -2 17 -29 11 -34 -7 -3 -10 -5 -3 -6 15
-1 24 2 31 12 25 6 -4 19 -6 28 -5z m145 -356 c1 -18 0 -32 -2 -32 -10 0 -35
51 -29 60 12 20 29 4 31 -28z"/>
<path d="M390 576 c0 -42 26 -105 52 -128 11 -9 19 -19 19 -22 -3 -20 1 -26
19 -36 19 -10 18 -8 -3 34 -12 24 -30 46 -39 49 -19 5 -25 37 -8 37 15 0 12
37 -5 70 -20 40 -35 38 -35 -4z"/>
</g>
</svg>
